<?xml version="1.0" standalone="no"?>
<!DOCTYPE svg PUBLIC "-//W3C//DTD SVG 20010904//EN"
 "http://www.w3.org/TR/2001/REC-SVG-20010904/DTD/svg10.dtd">
<svg version="1.0" xmlns="http://www.w3.org/2000/svg"
 width="511.000000pt" height="518.000000pt" viewBox="0 0 511.000000 518.000000"
 preserveAspectRatio="xMidYMid meet">

<g transform="translate(0.000000,518.000000) scale(0.100000,-0.100000)"
fill="#000000" stroke="none">
<path d="M0 2590 l0 -2590 2555 0 2555 0 0 2590 0 2590 -2555 0 -2555 0 0
-2590z m1940 2388 l205 -1 -145 -8 c-80 -5 -336 -13 -570 -18 -462 -9 -479
-11 -610 -72 -175 -81 -286 -164 -389 -288 -108 -133 -158 -227 -198 -381 -24
-91 -25 -112 -34 -550 -5 -250 -11 -462 -13 -470 -2 -8 -4 185 -5 430 -1 398
1 454 18 535 44 213 130 367 295 530 120 118 202 174 333 226 163 65 313 80
693 73 118 -2 307 -5 420 -6z m805 -768 c311 -27 571 -98 840 -231 66 -32 148
-77 183 -99 61 -39 63 -42 60 -77 -2 -30 -8 -39 -29 -47 -21 -7 -40 -2 -105
31 -568 289 -1127 361 -1696 217 -294 -74 -585 -209 -978 -455 -85 -53 -165
-99 -177 -103 -45 -14 -24 24 55 102 269 268 702 504 1105 602 249 61 494 81
742 60z m-65 -430 c405 -29 757 -155 1135 -405 161 -107 263 -192 415 -344
128 -129 303 -345 338 -417 20 -42 16 -50 -80 -179 -258 -346 -613 -642 -998
-834 -528 -262 -1049 -302 -1577 -120 -445 153 -855 436 -1179 813 -128 149
-208 268 -201 298 13 50 204 286 346 428 230 230 422 371 687 507 301 155 559
231 854 252 58 5 110 9 115 9 6 1 71 -3 145 -8z m1472 -129 c28 -25 33 -36 33
-76 0 -40 -5 -51 -33 -76 -93 -83 -215 19 -157 131 19 37 41 49 87 50 28 0 46
-8 70 -29z m128 -1952 c0 -19 -159 -176 -261 -258 -229 -185 -563 -352 -854
-426 -236 -60 -321 -70 -610 -70 -228 0 -276 3 -390 24 -288 51 -545 146 -798
294 -91 54 -105 72 -93 122 12 47 43 42 197 -36 249 -124 463 -196 734 -245
143 -26 566 -26 710 -1 407 73 763 228 1210 526 114 76 155 95 155 70z m-3187
-23 c55 -51 40 -140 -28 -173 -103 -49 -197 87 -116 168 39 39 105 41 144 5z
m2610 -1443 c-73 -2 -193 -2 -265 0 -73 1 -14 3 132 3 146 0 205 -2 133 -3z"/>
<path d="M2300 3625 c-445 -70 -899 -298 -1250 -629 -154 -146 -350 -378 -350
-416 0 -52 322 -402 500 -544 213 -169 522 -343 746 -420 432 -148 872 -138
1304 30 217 85 435 213 645 378 132 104 395 370 469 474 l59 83 -37 53 c-291
422 -824 797 -1336 939 -232 65 -534 86 -750 52z m475 -175 c159 -43 299 -124
415 -240 110 -109 176 -219 225 -370 34 -104 45 -299 25 -413 -65 -366 -345
-656 -706 -732 -91 -19 -274 -19 -366 0 -163 35 -308 115 -439 245 -317 314
-364 776 -116 1145 51 76 175 199 252 250 83 55 200 103 303 126 114 25 291
20 407 -11z m-1126 -262 c-131 -202 -186 -411 -176 -661 7 -193 54 -347 153
-508 74 -119 73 -116 8 -79 -142 80 -193 118 -209 157 -72 170 -99 326 -92
531 5 165 20 241 74 391 23 62 34 79 70 105 38 27 203 126 210 126 1 0 -16
-28 -38 -62z m1896 -3 c132 -78 141 -87 175 -187 50 -149 65 -245 64 -423 -1
-178 -17 -270 -74 -427 l-32 -87 -76 -49 c-109 -69 -177 -108 -170 -97 3 6 25
44 50 85 93 155 140 294 160 472 26 234 -38 502 -172 719 -16 27 -27 49 -24
49 3 0 48 -25 99 -55z"/>
<path d="M2470 3330 l-65 -7 90 -1 c58 0 83 2 70 8 -11 5 -22 8 -25 8 -3 -1
-34 -4 -70 -8z"/>
<path d="M2589 3318 c-9 -17 -23 -19 -145 -17 l-135 1 -77 -37 c-90 -44 -134
-73 -127 -85 3 -4 -2 -7 -11 -6 -11 1 -17 -9 -20 -31 l-4 -33 49 0 c40 0 50 3
54 20 3 12 14 20 26 20 25 0 28 17 4 23 -15 4 -14 5 3 6 13 1 25 -8 32 -21 6
-13 11 -17 11 -10 1 6 6 12 12 12 6 0 8 -8 4 -19 -3 -11 -1 -22 5 -26 6 -3 7
-11 4 -17 -4 -6 0 -14 7 -19 11 -7 10 -9 -3 -9 -10 0 -18 -5 -18 -11 0 -6 -6
-7 -12 -2 -7 4 -26 6 -41 4 -22 -2 -30 2 -34 18 -4 18 -12 20 -51 17 -25 -2
-48 -9 -50 -15 -2 -6 -11 -11 -20 -11 -15 0 -15 2 -2 10 13 8 12 10 -2 10 -21
0 -24 16 -5 23 9 3 9 7 0 17 -8 9 -25 -5 -72 -65 -102 -128 -104 -134 -96
-296 5 -99 4 -139 -3 -139 -8 0 -12 42 -14 123 -3 111 -4 119 -16 92 -23 -51
-42 -136 -49 -212 l-6 -73 42 0 c35 0 43 -4 51 -26 6 -14 10 -36 10 -49 0 -21
5 -24 43 -28 l42 -4 -40 -1 c-34 -2 -42 -7 -55 -35 -12 -25 -20 -31 -39 -29
-21 3 -23 1 -17 -25 4 -15 24 -62 44 -103 l37 -75 3 88 3 87 159 0 160 0 0
-120 0 -120 -137 2 -138 2 130 6 130 5 3 79 c2 44 -1 83 -5 87 -4 4 -72 5
-150 2 l-143 -6 0 -73 c0 -40 4 -75 8 -78 9 -5 89 71 81 77 -2 2 -19 14 -37
26 -18 13 -31 25 -29 28 3 2 26 -12 52 -31 64 -50 86 -47 168 16 20 16 37 26
37 21 -1 -9 -70 -62 -107 -81 -14 -8 -30 -9 -46 -3 -21 8 -30 4 -62 -29 -47
-48 -44 -60 43 -141 l67 -63 3 34 c6 56 14 60 128 60 120 0 117 3 112 -110
l-3 -65 -40 -6 -40 -5 30 -13 c58 -24 128 -36 133 -23 5 17 22 15 22 -3 0 -8
5 -15 10 -15 6 0 10 7 10 16 0 8 5 12 10 9 6 -4 8 -11 5 -16 -4 -5 35 -9 94
-9 l101 0 0 75 0 75 114 0 115 0 3 -36 3 -35 60 41 c97 67 117 90 110 122 -5
20 -2 30 9 34 9 3 16 16 16 28 0 45 43 68 61 34 11 -21 12 -21 26 -2 32 42 94
180 90 202 -2 12 0 22 4 22 22 0 6 19 -18 23 -27 4 -27 4 3 6 27 1 32 6 38 32
3 17 6 53 6 79 0 51 -9 60 -55 60 -52 0 -55 6 -55 105 0 100 3 105 57 105 22
0 24 3 19 28 -4 15 -23 61 -44 102 l-37 74 -7 -39 c-4 -22 -7 -61 -7 -87 -1
-45 -12 -61 -26 -38 -3 6 -1 10 4 10 6 0 11 15 11 33 l0 32 -25 -31 c-13 -17
-37 -36 -52 -43 -25 -10 -28 -16 -27 -54 1 -40 1 -40 -3 -4 -6 53 -31 49 -36
-5 l-4 -43 -1 43 c-1 29 -6 42 -16 42 -10 0 -16 -14 -19 -42 l-4 -43 -1 43
c-2 52 -19 55 -25 5 l-4 -38 0 41 c1 35 -5 46 -34 72 -33 28 -43 31 -115 34
l-79 3 -3 123 -3 122 128 1 c70 0 148 4 173 7 l45 7 -55 38 c-39 26 -67 37
-95 38 -25 1 -31 3 -16 6 23 5 22 5 -10 26 -19 11 -55 28 -81 38 -46 18 -47
18 -53 -1 -7 -21 -30 -27 -40 -10 -3 6 1 10 9 10 25 0 19 20 -10 30 -29 11
-44 6 -44 -16 0 -8 4 -13 9 -9 17 10 21 -12 6 -25 -20 -17 -28 -7 -27 29 0 25
-4 30 -29 33 -22 4 -33 0 -40 -14z m-29 -67 c0 -16 -18 -22 -23 -9 -8 23 -19
1 -27 -54 l-8 -53 -1 56 c0 31 2 59 6 62 10 10 53 8 53 -2z m198 -26 c-3 -29
-2 -29 -28 -13 -16 10 -24 10 -40 0 -24 -15 -30 -15 -30 -2 0 6 8 11 18 11 16
1 16 2 0 6 -10 2 -18 9 -18 14 0 13 24 11 38 -3 10 -9 16 -9 29 4 21 21 33 14
31 -17z m-478 15 c0 -5 -5 -10 -11 -10 -5 0 -7 5 -4 10 3 6 8 10 11 10 2 0 4
-4 4 -10z m546 -5 c-3 -8 -1 -15 4 -15 6 0 10 7 10 15 0 8 8 15 18 14 10 0 12
-3 5 -6 -7 -2 -13 -11 -13 -19 0 -18 -27 -18 -46 0 -11 11 -11 16 -1 19 22 10
29 7 23 -8z m-430 -36 c10 -17 -13 -36 -27 -22 -12 12 -4 33 11 33 5 0 12 -5
16 -11z m257 -46 c-7 -2 -19 -2 -25 0 -7 3 -2 5 12 5 14 0 19 -2 13 -5z m-103
-43 c24 -24 26 -67 3 -92 -20 -22 -70 -23 -95 -1 -40 36 -8 113 47 113 14 0
34 -9 45 -20z m80 -61 c0 -5 -7 -9 -15 -9 -15 0 -20 12 -9 23 8 8 24 -1 24
-14z m-217 -16 c-7 -2 -21 -2 -30 0 -10 3 -4 5 12 5 17 0 24 -2 18 -5z m-113
-33 c0 -5 -4 -10 -10 -10 -5 0 -10 5 -10 10 0 6 5 10 10 10 6 0 10 -4 10 -10z
m-220 -21 c0 -6 -12 -10 -27 -9 -71 5 -90 0 -101 -25 -19 -42 -14 -83 12 -110
20 -20 32 -23 70 -20 26 2 44 -1 40 -6 -3 -5 -25 -9 -48 -9 -63 0 -96 33 -96
97 1 74 18 87 113 90 20 1 37 -3 37 -8z m497 -11 c-3 -8 -6 -5 -6 6 -1 11 2
17 5 13 3 -3 4 -12 1 -19z m-69 -80 c-4 -91 -18 -75 -18 20 0 55 3 73 10 62 6
-8 9 -45 8 -82z m-398 52 c0 -6 -27 -10 -60 -10 l-60 0 0 -39 0 -39 60 -4 c33
-1 60 1 60 5 0 5 5 5 11 2 21 -13 -3 -20 -64 -17 -34 2 -67 8 -73 13 -10 8
-12 40 -5 81 1 4 29 9 64 11 34 2 63 4 65 5 1 1 2 -2 2 -8z m153 -27 c-24 -2
-62 -2 -85 0 -24 2 -5 4 42 4 47 0 66 -2 43 -4z m37 -30 c0 -5 -36 -8 -80 -8
-44 0 -80 3 -80 8 0 4 36 7 80 7 44 0 80 -3 80 -7z m240 -28 c0 -19 -4 -35 -8
-35 -4 0 -6 16 -4 35 2 19 6 35 8 35 2 0 4 -16 4 -35z m55 25 c3 -5 1 -10 -4
-10 -6 0 -11 5 -11 10 0 6 2 10 4 10 3 0 8 -4 11 -10z m115 -50 c0 -5 -8 -10
-17 -10 -15 0 -16 2 -3 10 19 12 20 12 20 0z m70 0 c0 -5 -7 -10 -15 -10 -8 0
-15 5 -15 10 0 6 7 10 15 10 8 0 15 -4 15 -10z m117 -77 c-2 -16 -4 -5 -4 22
0 28 2 40 4 28 2 -13 2 -35 0 -50z m30 5 c-2 -13 -4 -5 -4 17 -1 22 1 32 4 23
2 -10 2 -28 0 -40z m-741 10 c-4 7 -2 12 4 12 7 0 10 -12 8 -29 -1 -16 3 -35
10 -43 7 -9 10 -23 6 -32 -3 -9 -2 -16 4 -16 5 0 7 -11 5 -24 -3 -15 -10 -23
-18 -20 -7 3 -15 -2 -19 -11 -5 -13 -1 -15 14 -10 11 4 20 2 20 -4 0 -6 -4
-11 -10 -11 -6 0 -11 -30 -12 -67 l-2 -68 -6 70 -6 70 -4 -70 -3 -70 -7 90
c-3 50 -3 92 2 93 11 5 10 22 -1 22 -5 0 -13 -9 -16 -20 -3 -11 -11 -20 -17
-20 -6 0 -5 6 3 16 10 13 10 17 -2 25 -14 8 -10 11 21 13 17 1 20 54 6 96 -8
23 -8 24 9 10 11 -9 16 -10 11 -2z m652 0 c18 -18 17 -362 -2 -377 -9 -8 -92
-11 -282 -9 l-269 3 -3 184 c-2 127 1 188 9 197 16 19 528 21 547 2z m299 -75
c-2 -16 -4 -5 -4 22 0 28 2 40 4 28 2 -13 2 -35 0 -50z m-1094 9 c2 -23 0 -42
-4 -42 -5 0 -9 21 -9 47 0 56 7 54 13 -5z m127 -6 c0 -19 -4 -23 -20 -19 -11
3 -20 10 -20 15 0 6 7 8 15 4 9 -3 15 0 15 9 0 8 2 15 5 15 3 0 5 -11 5 -24z
m-215 -55 c3 -6 -4 -9 -15 -8 -11 1 -20 5 -20 9 0 11 28 10 35 -1z m1195 -81
l0 -71 -102 3 -103 3 -3 54 c-5 82 -6 81 108 81 l100 0 0 -70z m-250 40 c0 -5
-5 -10 -11 -10 -5 0 -7 5 -4 10 3 6 8 10 11 10 2 0 4 -4 4 -10z m-912 -32 c-6
-18 -28 -21 -28 -4 0 9 7 16 16 16 9 0 14 -5 12 -12z m-53 -78 c3 -5 -3 -10
-14 -10 -12 0 -21 5 -21 10 0 6 6 10 14 10 8 0 18 -4 21 -10z m35 0 c0 -5 -4
-10 -10 -10 -5 0 -10 5 -10 10 0 6 5 10 10 10 6 0 10 -4 10 -10z m90 0 c0 -5
-18 -10 -40 -10 -22 0 -40 5 -40 10 0 6 18 10 40 10 22 0 40 -4 40 -10z m8
-37 c-15 -2 -42 -2 -60 0 -18 2 -6 4 27 4 33 0 48 -2 33 -4z m-103 -33 c-3 -5
-12 -7 -20 -3 -21 7 -19 13 6 13 11 0 18 -4 14 -10z m125 0 c0 -5 -22 -10 -50
-10 -27 0 -50 5 -50 10 0 6 23 10 50 10 28 0 50 -4 50 -10z m1020 -11 c0 -5
-9 -9 -19 -9 -11 0 -22 4 -25 9 -3 5 6 9 19 9 14 0 25 -4 25 -9z m40 1 c0 -5
-7 -10 -16 -10 -8 0 -12 5 -9 10 3 6 10 10 16 10 5 0 9 -4 9 -10z m35 0 c3 -5
-1 -10 -10 -10 -9 0 -13 5 -10 10 3 6 8 10 10 10 2 0 7 -4 10 -10z m42 -6 c-3
-3 -12 -4 -19 -1 -8 3 -5 6 6 6 11 1 17 -2 13 -5z m-217 -29 c0 -8 -7 -15 -15
-15 -16 0 -20 12 -8 23 11 12 23 8 23 -8z m97 -1 c-3 -3 -12 -4 -19 -1 -8 3
-5 6 6 6 11 1 17 -2 13 -5z m83 -2 c0 -4 -16 -8 -35 -9 -19 -1 -35 3 -35 8 0
5 16 9 35 9 19 0 35 -4 35 -8z m35 -2 c-3 -5 -10 -10 -16 -10 -5 0 -9 5 -9 10
0 6 7 10 16 10 8 0 12 -4 9 -10z m-64 -49 c20 -18 19 -18 -11 -17 -16 1 -30 2
-30 3 0 7 13 33 16 33 3 0 14 -8 25 -19z m51 12 c-6 -2 -10 -9 -7 -13 3 -5 1
-11 -5 -15 -5 -3 -10 0 -10 9 0 8 -6 17 -12 19 -7 3 1 5 17 5 17 0 24 -2 17
-5z m-662 -7 c0 -3 -4 -8 -10 -11 -5 -3 -10 -1 -10 4 0 6 5 11 10 11 6 0 10
-2 10 -4z m-250 -22 c0 -8 -4 -12 -10 -9 -5 3 -10 10 -10 16 0 5 5 9 10 9 6 0
10 -7 10 -16z m297 -181 c-2 -38 -3 -7 -3 67 0 74 1 105 3 68 2 -38 2 -98 0
-135z m440 -25 c-1 -40 -3 -10 -3 67 0 77 1 110 3 73 2 -37 2 -100 0 -140z
m-337 182 c0 -5 -13 -10 -30 -10 -16 0 -30 5 -30 10 0 6 14 10 30 10 17 0 30
-4 30 -10z m220 0 c-116 -11 -190 -11 -190 0 0 6 50 9 133 8 121 -1 126 -2 57
-8z m-157 -37 c-24 -2 -62 -2 -85 0 -24 2 -5 4 42 4 47 0 66 -2 43 -4z m-466
-25 c-3 -8 -6 -5 -6 6 -1 11 2 17 5 13 3 -3 4 -12 1 -19z m200 -30 c-3 -7 -5
-2 -5 12 0 14 2 19 5 13 2 -7 2 -19 0 -25z m293 18 c8 -2 -23 -4 -70 -4 -53 1
-72 3 -50 7 33 6 85 4 120 -3z m-590 -58 c0 -13 -5 -10 -41 29 l-34 36 37 -29
c21 -16 38 -32 38 -36z m200 26 c0 -2 -7 -4 -15 -4 -8 0 -15 4 -15 10 0 5 7 7
15 4 8 -4 15 -8 15 -10z m502 -11 c-51 -2 -132 -2 -180 0 -48 1 -6 3 93 3 99
0 138 -2 87 -3z m-598 -28 c3 -8 1 -15 -4 -15 -6 0 -10 7 -10 15 0 8 2 15 4
15 2 0 6 -7 10 -15z m154 -22 c3 -28 0 -33 -17 -33 -12 0 -21 7 -21 15 0 8 -6
15 -13 15 -7 0 -13 9 -14 21 -2 17 3 20 30 17 28 -3 32 -7 35 -35z m245 10
c-13 -2 -33 -2 -45 0 -13 2 -3 4 22 4 25 0 35 -2 23 -4z m145 0 c-21 -2 -57
-2 -80 0 -24 2 -7 4 37 4 44 0 63 -2 43 -4z m-160 -50 c-10 -2 -26 -2 -35 0
-10 3 -2 5 17 5 19 0 27 -2 18 -5z m302 -5 c0 -4 -61 -8 -135 -8 -86 0 -135 4
-135 10 0 7 48 10 135 8 74 -1 135 -5 135 -10z m-412 -85 c-21 -2 -57 -2 -80
0 -24 2 -7 4 37 4 44 0 63 -2 43 -4z m-138 -23 c0 -5 -4 -10 -10 -10 -5 0 -10
5 -10 10 0 6 5 10 10 10 6 0 10 -4 10 -10z m80 0 c0 -5 -13 -10 -30 -10 -16 0
-30 5 -30 10 0 6 14 10 30 10 17 0 30 -4 30 -10z m70 -2 c0 -4 -13 -8 -30 -8
-16 0 -30 4 -30 8 0 5 14 9 30 9 17 0 30 -4 30 -9z m-150 -28 c0 -5 -4 -10
-10 -10 -5 0 -10 5 -10 10 0 6 5 10 10 10 6 0 10 -4 10 -10z m117 -3 c3 -4
-17 -7 -45 -7 -29 0 -52 4 -52 8 0 9 87 8 97 -1z m53 -3 c0 -2 -9 -4 -20 -4
-11 0 -20 4 -20 9 0 5 9 7 20 4 11 -3 20 -7 20 -9z m-34 -41 c-10 -10 -19 5
-10 18 6 11 8 11 12 0 2 -7 1 -15 -2 -18z m-96 7 c0 -5 -7 -10 -15 -10 -8 0
-15 5 -15 10 0 6 7 10 15 10 8 0 15 -4 15 -10z"/>
<path d="M2467 3102 c-36 -39 -10 -92 43 -92 47 0 68 61 32 93 -24 22 -55 21
-75 -1z"/>
<path d="M2190 2639 c0 -5 5 -7 10 -4 6 3 10 8 10 11 0 2 -4 4 -10 4 -5 0 -10
-5 -10 -11z"/>
<path d="M2300 2725 l0 -35 266 0 265 0 -3 33 -3 32 -262 3 -263 2 0 -35z m50
0 c0 -8 -7 -15 -15 -15 -16 0 -20 12 -8 23 11 12 23 8 23 -8z m50 0 c0 -8 -7
-15 -15 -15 -16 0 -20 12 -8 23 11 12 23 8 23 -8z m44 9 c13 -5 14 -9 5 -20
-13 -16 -29 -9 -29 12 0 16 2 16 24 8z m356 -9 c0 -9 -9 -15 -25 -15 -16 0
-25 6 -25 15 0 9 9 15 25 15 16 0 25 -6 25 -15z"/>
<path d="M2300 2528 l0 -141 173 6 c94 4 214 7 265 7 l92 0 0 135 0 135 -265
0 -265 0 0 -142z m455 112 c-3 -5 -17 -10 -30 -10 -13 0 -27 5 -30 10 -4 6 8
10 30 10 22 0 34 -4 30 -10z m-330 -10 c4 -6 -12 -10 -39 -10 -25 0 -46 5 -46
10 0 6 18 10 39 10 22 0 43 -4 46 -10z m114 -6 c2 -2 -17 -4 -42 -4 -26 0 -47
4 -47 9 0 8 79 3 89 -5z m-109 -24 c0 -5 -20 -10 -45 -10 -25 0 -45 5 -45 10
0 6 20 10 45 10 25 0 45 -4 45 -10z m95 0 c4 -6 -10 -10 -34 -10 -23 0 -41 5
-41 10 0 6 15 10 34 10 19 0 38 -4 41 -10z m100 -40 c8 0 15 5 15 10 0 6 5 10
12 10 7 0 5 -7 -4 -17 -9 -10 -18 -27 -21 -38 -4 -18 -5 -18 -6 3 -1 12 -7 22
-16 22 -9 0 -15 9 -15 23 1 20 2 20 11 5 5 -10 17 -18 24 -18z m105 21 c0 -6
-5 -13 -10 -16 -15 -9 -43 3 -35 15 8 13 45 13 45 1z m-300 -11 c0 -5 -20 -10
-45 -10 -25 0 -45 5 -45 10 0 6 20 10 45 10 25 0 45 -4 45 -10z m100 0 c0 -5
-18 -10 -40 -10 -22 0 -40 5 -40 10 0 6 18 10 40 10 22 0 40 -4 40 -10z m240
-21 c0 -10 -6 -19 -14 -19 -9 0 -12 8 -8 25 5 28 22 24 22 -6z m-340 -9 c0 -5
-20 -10 -45 -10 -25 0 -45 5 -45 10 0 6 20 10 45 10 25 0 45 -4 45 -10z m100
0 c0 -5 -18 -10 -40 -10 -22 0 -40 5 -40 10 0 6 18 10 40 10 22 0 40 -4 40
-10z m-127 -37 c-13 -2 -33 -2 -45 0 -13 2 -3 4 22 4 25 0 35 -2 23 -4z m110
0 c-13 -2 -35 -2 -50 0 -16 2 -5 4 22 4 28 0 40 -2 28 -4z m256 -29 c25 -3 25
-6 1 -13 -14 -4 -32 -3 -41 2 -15 9 -15 12 0 29 15 17 16 17 22 1 3 -10 11
-19 18 -19z m-120 7 c21 -13 4 -30 -29 -29 -35 1 -37 6 -12 24 20 16 23 16 41
5z m-229 -8 c0 -5 -18 -8 -40 -8 -22 -1 -40 3 -40 7 0 4 18 8 40 8 22 0 40 -3
40 -7z m93 0 c-13 -2 -33 -2 -45 0 -13 2 -3 4 22 4 25 0 35 -2 23 -4z m-88
-33 c4 -6 -12 -10 -39 -10 -25 0 -46 5 -46 10 0 6 18 10 39 10 22 0 43 -4 46
-10z m105 0 c0 -5 -18 -10 -40 -10 -22 0 -40 5 -40 10 0 6 18 10 40 10 22 0
40 -4 40 -10z"/>
<path d="M2957 2613 c-4 -3 -7 -28 -7 -55 l0 -48 68 -1 c37 -1 79 -3 95 -5 27
-3 27 -2 27 54 -1 47 -3 54 -13 42 -15 -20 -72 -60 -84 -60 -4 1 -24 15 -43
32 -35 31 -27 30 21 -3 25 -18 27 -17 62 7 21 14 37 29 37 34 0 11 -153 14
-163 3z m27 -68 c3 -8 1 -15 -4 -15 -6 0 -10 7 -10 15 0 8 2 15 4 15 2 0 6 -7
10 -15z m136 -11 c0 -14 -3 -14 -15 -4 -8 7 -15 14 -15 16 0 2 7 4 15 4 8 0
15 -7 15 -16z"/>
<path d="M2195 3131 c-3 -6 -1 -20 5 -30 13 -26 42 -16 38 13 -3 22 -32 34
-43 17z"/>
<path d="M2732 3005 l3 -110 68 -3 c68 -3 69 -3 60 20 -10 29 -10 95 1 131 l8
27 -48 -4 c-27 -2 -58 0 -69 5 -13 5 7 8 56 8 63 1 79 4 94 21 l19 21 -97 -3
-98 -2 3 -111z m88 25 c-20 -13 -60 -13 -60 0 0 6 17 10 38 10 27 0 33 -3 22
-10z m10 -30 c0 -12 -69 -10 -76 2 -3 4 13 8 35 8 23 0 41 -5 41 -10z m0 -42
c0 -4 -19 -8 -42 -7 -34 1 -38 2 -18 8 32 9 60 9 60 -1z m-7 -35 c-13 -2 -35
-2 -50 0 -16 2 -5 4 22 4 28 0 40 -2 28 -4z"/>
<path d="M3210 2686 c0 -93 2 -96 67 -96 l36 0 -6 79 c-3 44 -8 84 -12 90 -3
6 -24 11 -46 11 l-39 0 0 -84z m30 -16 c0 -5 -2 -10 -4 -10 -3 0 -8 5 -11 10
-3 6 -1 10 4 10 6 0 11 -4 11 -10z m23 -37 c-7 -2 -19 -2 -25 0 -7 3 -2 5 12
5 14 0 19 -2 13 -5z"/>
<path d="M1795 2530 c-3 -5 1 -10 9 -10 9 0 16 -7 16 -15 0 -8 -6 -15 -12 -15
-10 0 -9 -3 1 -9 7 -5 10 -14 7 -20 -5 -7 4 -11 23 -11 30 0 31 1 31 45 0 45
0 45 -34 45 -19 0 -38 -4 -41 -10z"/>
<path d="M1812 2423 c2 -12 12 -18 28 -18 16 0 26 6 28 18 3 13 -3 17 -28 17
-25 0 -31 -4 -28 -17z"/>
<path d="M3116 2132 c-13 -12 -5 -22 19 -22 14 0 25 4 25 9 0 10 -36 21 -44
13z"/>
<path d="M3090 2074 c0 -9 5 -14 12 -12 18 6 21 28 4 28 -9 0 -16 -7 -16 -16z"/>
<path d="M2120 1995 c0 -41 3 -47 38 -70 25 -16 59 -27 100 -31 l62 -7 0 77 0
76 -100 0 -100 0 0 -45z m180 12 c-43 -34 -45 -46 -14 -79 23 -24 25 -28 8
-20 -12 6 -25 19 -28 28 -6 15 -8 16 -24 0 -25 -22 -39 -20 -57 8 -13 19 -14
29 -5 45 13 25 55 28 68 6 7 -14 11 -13 27 5 10 11 23 20 29 20 6 0 4 -6 -4
-13z"/>
<path d="M2201 1990 c-19 -11 -9 -45 14 -45 13 0 21 8 23 21 3 23 -17 37 -37
24z"/>
<path d="M2680 1894 l0 -66 43 7 c55 9 75 28 25 24 -20 -2 -40 0 -44 4 -4 4
26 8 67 9 l74 2 -75 6 -75 7 90 0 90 0 6 31 c3 17 4 34 1 37 -3 3 -50 5 -104
5 l-98 0 0 -66z m40 25 c0 -9 22 -10 78 -6 51 5 72 4 62 -3 -17 -11 -119 -14
-144 -4 -18 7 -22 24 -6 24 6 0 10 -5 10 -11z"/>
</g>
</svg>
